<svg xmlns="http://www.w3.org/2000/svg" width="143" height="34.581" viewBox="0 0 138.916 33.594">
  <defs>
    <style>
      .cls-1 {
        fill: #dc0000;
        fill-rule: evenodd;
        opacity: 0.8;
      }
    </style>
  </defs>
  <path id="Brand_ly" data-name="Brand ly" class="cls-1" d="M374.968,62h8.305c5.28,0,8.017-2.784,8.017-7.969v-2.88c0-3.552-1.105-6.049-3.937-7.009v-0.1c2.352-.96,3.409-3.12,3.409-6.576V36.126c0-5.184-2.353-7.729-7.825-7.729h-7.969V62Zm5.281-19.922V33.2h2.544c1.872,0,2.688,1.056,2.688,3.456v1.872c0,2.688-1.2,3.552-3.168,3.552h-2.064Zm0,15.121V46.879H382.6c2.4,0,3.408.96,3.408,4.08v2.928c0,2.5-.96,3.312-2.736,3.312h-3.024ZM394.36,62h5.28V47.6h1.824c2.4,0,3.313,1.008,3.313,4.128v6.145a10.335,10.335,0,0,0,.48,4.128h5.376a9.9,9.9,0,0,1-.576-4.08v-5.9c0-3.792-.864-6.288-3.5-7.1v-0.1c2.352-.96,3.456-3.168,3.456-6.625V36.126c0-5.184-2.352-7.729-7.825-7.729H394.36V62Zm5.28-19.2V33.2h2.4c1.873,0,2.689,1.056,2.689,3.456v2.592c0,2.688-1.2,3.552-3.169,3.552h-1.92ZM412.312,62h4.9l0.96-6.577h6v-0.1L425.129,62h5.28l-5.472-33.6h-7.153Zm6.48-11.137,2.3-16.609h0.1l2.353,16.609h-4.753ZM432.951,62h4.7V37.47h0.1L444.088,62h5.425V28.4h-4.7V48.511h-0.1L439.576,28.4h-6.625V62Zm20.5,0h8.065c5.281,0,7.873-2.928,7.873-8.3V36.7c0-5.376-2.592-8.3-7.873-8.3h-8.065V62Zm5.281-4.8v-24h2.688c1.68,0,2.688.864,2.688,3.264V53.935c0,2.4-1.008,3.264-2.688,3.264h-2.688ZM480.613,62h13.97V57.2h-8.689V28.4h-5.281V62Zm17.137,0h5.28V47.695l6.385-19.3h-5.137l-3.6,12.337h-0.1l-3.6-12.337h-5.617l6.385,19.3V62Z" transform="translate(-372.73 -28.406)"/>
</svg>
